<svg xmlns="http://www.w3.org/2000/svg" width="25" height="25" viewBox="0 0 25 25">
  <g id="icon" transform="translate(0.5 0.5)">
    <path id="Path_53" data-name="Path 53" d="M28.2,6.481H23.676V4.91a.353.353,0,0,0-.353-.353H21.816a.353.353,0,0,0-.353.353V6.481h-3.8V4.91a.353.353,0,0,0-.353-.353H15.8a.353.353,0,0,0-.353.353V6.481h-3.8V4.91a.353.353,0,0,0-.353-.353H9.791a.353.353,0,0,0-.353.353V6.481H4.91a.353.353,0,0,0-.353.353V28.2a.353.353,0,0,0,.353.353H28.2a.353.353,0,0,0,.353-.353V6.834a.353.353,0,0,0-.353-.353ZM22.169,5.264h.8V8.405h-.8Zm-6.012,0h.8V8.405h-.8Zm-6.012,0h.8V8.405h-.8ZM5.264,7.188H9.438V8.758a.353.353,0,0,0,.353.353H11.3a.353.353,0,0,0,.353-.353V7.188h3.8V8.758a.353.353,0,0,0,.353.353H17.31a.353.353,0,0,0,.353-.353V7.188h3.8V8.758a.353.353,0,0,0,.353.353h1.506a.353.353,0,0,0,.353-.353V7.188H27.85V11.23H5.264Zm0,20.663V11.937H27.85V27.85Z" transform="translate(-4.557 -4.557)" fill="#575757" stroke="#575757" stroke-width="1"/>
  </g>
</svg>
