<svg xmlns="http://www.w3.org/2000/svg" width="13.486" height="16.469" viewBox="0 0 13.486 16.469">
  <g id="delete" transform="translate(0.258 0.25)">
    <path id="Path_279" data-name="Path 279" d="M222.772,154.7a.374.374,0,0,0-.374.374v7.068a.374.374,0,0,0,.748,0v-7.068A.374.374,0,0,0,222.772,154.7Zm0,0" transform="translate(-214.081 -148.917)" fill="#df0000" stroke="#df0000" stroke-width="0.5"/>
    <path id="Path_280" data-name="Path 280" d="M104.772,154.7a.374.374,0,0,0-.374.374v7.068a.374.374,0,0,0,.748,0v-7.068A.374.374,0,0,0,104.772,154.7Zm0,0" transform="translate(-100.494 -148.917)" fill="#df0000" stroke="#df0000" stroke-width="0.5"/>
    <path id="Path_281" data-name="Path 281" d="M1.059,4.753v9.214a2.063,2.063,0,0,0,.549,1.423,1.842,1.842,0,0,0,1.336.578H10.02a1.841,1.841,0,0,0,1.336-.578,2.063,2.063,0,0,0,.549-1.423V4.753a1.429,1.429,0,0,0-.367-2.809H9.623V1.476A1.469,1.469,0,0,0,8.142,0H4.821A1.469,1.469,0,0,0,3.34,1.476v.467H1.425a1.429,1.429,0,0,0-.367,2.809ZM10.02,15.22H2.944a1.184,1.184,0,0,1-1.137-1.253V4.786h9.35v9.181A1.184,1.184,0,0,1,10.02,15.22ZM4.088,1.476A.721.721,0,0,1,4.821.747H8.142a.721.721,0,0,1,.733.729v.467H4.088ZM1.425,2.691H11.538a.673.673,0,0,1,0,1.346H1.425a.673.673,0,0,1,0-1.346Zm0,0" transform="translate(0.003 0.001)" fill="#df0000" stroke="#df0000" stroke-width="0.5"/>
    <path id="Path_282" data-name="Path 282" d="M163.772,154.7a.374.374,0,0,0-.374.374v7.068a.374.374,0,0,0,.748,0v-7.068A.374.374,0,0,0,163.772,154.7Zm0,0" transform="translate(-157.287 -148.917)" fill="#df0000" stroke="#df0000" stroke-width="0.5"/>
  </g>
</svg>
