<svg xmlns="http://www.w3.org/2000/svg" width="16.704" height="16.5" viewBox="0 0 16.704 16.5">
  <g id="edit" transform="translate(0.25 0.25)">
    <g id="icon" transform="translate(0)">
      <path id="Path_126" data-name="Path 126" d="M14.842,47.655a.4.4,0,0,0-.4.4v3.556a1.2,1.2,0,0,1-1.2,1.2H2a1.2,1.2,0,0,1-1.2-1.2V41.175a1.2,1.2,0,0,1,1.2-1.2H5.558a.4.4,0,0,0,0-.8H2a2,2,0,0,0-2,2V51.611a2,2,0,0,0,2,2H13.24a2,2,0,0,0,2-2V48.055A.4.4,0,0,0,14.842,47.655Zm0,0" transform="translate(0 -37.614)" fill="#58595b" stroke="#58595b" stroke-width="0.5"/>
      <path id="Path_127" data-name="Path 127" d="M118.941.789a1.8,1.8,0,0,0-2.549,0l-7.145,7.145a.4.4,0,0,0-.1.176L108.2,11.5A.4.4,0,0,0,108.7,12l3.392-.94a.4.4,0,0,0,.176-.1l7.145-7.145a1.8,1.8,0,0,0,0-2.549ZM110.12,8.194l5.848-5.848,1.886,1.886-5.848,5.848Zm-.377.756,1.507,1.507-2.084.577Zm9.1-5.709-.425.425L116.534,1.78l.425-.425a1,1,0,0,1,1.416,0l.47.47A1,1,0,0,1,118.845,3.241Zm0,0" transform="translate(-103.857 -0.261)" fill="#58595b" stroke="#58595b" stroke-width="0.5"/>
    </g>
  </g>
</svg>
