<svg id="view" xmlns="http://www.w3.org/2000/svg" width="21" height="14" viewBox="0 0 21 14">
  <g id="Group_137" data-name="Group 137" transform="translate(0 0)">
    <g id="Group_136" data-name="Group 136">
      <path id="Path_277" data-name="Path 277" d="M173.531,170.667a2.8,2.8,0,1,1-2.864,2.8A2.835,2.835,0,0,1,173.531,170.667Z" transform="translate(-163.031 -166.467)" fill="#58595b"/>
      <path id="Path_278" data-name="Path 278" d="M10.5,74.667a11.287,11.287,0,0,1,10.5,7,11.287,11.287,0,0,1-10.5,7,11.282,11.282,0,0,1-10.5-7A11.282,11.282,0,0,1,10.5,74.667Zm0,11.667a4.668,4.668,0,1,0-4.773-4.667A4.722,4.722,0,0,0,10.5,86.334Z" transform="translate(0 -74.667)" fill="#58595b"/>
    </g>
  </g>
</svg>
